<!-- hero-automation-coherent.svg -->
<svg xmlns="http://www.w3.org/2000/svg" viewBox="0 0 960 360" role="img" aria-labelledby="title desc" style="color:#4F46E5">
  <title id="title">Automatización coherente: código a flujo de nodos</title>
  <desc id="desc">Un panel de código animado conecta con un lienzo de orquestación de nodos y flujos en movimiento.</desc>

  <style>
    /* Paleta y utilidades (hereda currentColor) */
    .brand { stroke: currentColor; fill: currentColor; }
    .stroke { stroke: currentColor; }
    .muted  { stroke: #E5E7EB; }
    .bg     { fill: #FFFFFF; }
    .round  { stroke-linecap: round; stroke-linejoin: round; }
    .sw3    { stroke-width: 3; }
    .sw4    { stroke-width: 4; }

    /* Animaciones coherentes y sutiles */
    @keyframes dash { to { stroke-dashoffset: -200; } }
    @keyframes pulse { 0%,100%{ r:7; opacity:.95 } 50%{ r:9; opacity:.55 } }
    @keyframes blink { 0%,40%{ opacity:1 } 50%,100%{ opacity:0 } }
    @keyframes type  { 0%{ transform:scaleX(0) } 100%{ transform:scaleX(1) } }

    .flow  { stroke-dasharray: 12 14; animation: dash 9s linear infinite; }
    .flow2 { stroke-dasharray: 12 14; animation: dash 9s linear infinite; animation-delay: .6s; }
    .pulse { animation: pulse 2.6s ease-in-out infinite; }
    .blink { animation: blink 1.05s steps(1,end) infinite; }
    .typeL { transform-box: fill-box; transform-origin: 0 50%; animation: type 1.2s ease forwards; }
    .t2    { animation-delay: .2s }
    .t3    { animation-delay: .4s }
    .t4    { animation-delay: .6s }

    /* Accesibilidad: menos movimiento si el usuario lo prefiere */
    @media (prefers-reduced-motion: reduce) {
      * { animation: none !important; }
    }
  </style>

  <!-- Fondo sutil para dar profundidad sin ruido -->
  <g opacity=".5">
    <rect x="40" y="28" width="340" height="264" rx="20" fill="#F8FAFF"></rect>
    <rect x="410" y="28" width="510" height="264" rx="20" fill="#F8FAFF"></rect>
  </g>

  <!-- PANEL DE CÓDIGO (izquierda) -->
  <g transform="translate(60,44)">
    <rect x="0" y="0" width="320" height="240" rx="16" class="bg" stroke="#E5E7EB"></rect>
    <rect x="0" y="0" width="320" height="40" rx="16" fill="#F3F6FF" stroke="#EAEFFF"></rect>
    <circle cx="24" cy="20" r="5" fill="#F87171"></circle>
    <circle cx="44" cy="20" r="5" fill="#FBBF24"></circle>
    <circle cx="64" cy="20" r="5" fill="#34D399"></circle>

    <!-- líneas "de código" con animación de escritura -->
    <g transform="translate(24,58)" class="brand">
      <rect x="0" y="0" width="230" height="8" rx="4" class="typeL" style="transform:scaleX(0)"></rect>
      <rect x="0" y="28" width="180" height="8" rx="4" class="typeL t2" style="transform:scaleX(0)"></rect>
      <rect x="0" y="56" width="260" height="8" rx="4" class="typeL t3" style="transform:scaleX(0)"></rect>
      <rect x="0" y="84" width="200" height="8" rx="4" class="typeL t4" style="transform:scaleX(0)"></rect>
      <!-- caret parpadeando -->
      <rect x="262" y="52" width="3" height="18" fill="#111827" class="blink"></rect>
    </g>

    <!-- símbolo de código integrado en la cabecera, no flotante -->
    <g transform="translate(260,10)" fill="none" class="stroke round sw3">
      <polyline points="0,8 -10,18 0,28"></polyline>
      <polyline points="36,8 46,18 36,28"></polyline>
    </g>
  </g>

  <!-- LIENZO DE ORQUESTACIÓN (derecha) -->
  <g transform="translate(430,44)">
    <rect x="0" y="0" width="480" height="240" rx="16" class="bg" stroke="#E5E7EB"></rect>

    <!-- Rutas principales (desde entrada a hub y destinos) -->
    <g fill="none" class="round">
      <!-- desde el panel de código hacia nodo de entrada -->
      <path d="M-90 120 C-50 100, -10 96, 20 104" class="stroke sw4 flow"></path>
      <!-- entrada -> hub -->
      <path d="M20 104 C80 120, 120 132, 170 140" class="stroke sw4 flow"></path>
      <!-- rama superior hub -> destino 1 -->
      <path d="M170 140 C230 120, 290 110, 360 110" class="muted sw3"></path>
      <!-- rama inferior hub -> destino 2 -->
      <path d="M170 140 C230 160, 290 170, 360 170" class="muted sw3"></path>
      <!-- rama lateral hub -> nodo auxiliar -->
      <path d="M170 140 C210 150, 230 190, 260 200" class="stroke sw4 flow2"></path>
    </g>

    <!-- Nodos coherentes (todos dentro del lienzo) -->
    <!-- nodo de entrada -->
    <circle cx="20" cy="104" r="7" class="brand pulse"></circle>
    <!-- hub -->
    <circle cx="170" cy="140" r="22" fill="#fff" class="stroke sw4"></circle>
    <circle cx="170" cy="140" r="7" class="brand pulse"></circle>
    <!-- nodo auxiliar -->
    <circle cx="260" cy="200" r="7" class="brand pulse"></circle>
    <!-- destinos -->
    <circle cx="360" cy="110" r="7" class="brand pulse"></circle>
    <circle cx="360" cy="170" r="7" class="brand pulse"></circle>
  </g>

  <!-- Conector invisible entre panel y lienzo (para que la ruta salga desde el borde del panel) -->
  <circle cx="380" cy="148" r="0" fill="none"></circle>
</svg>
