<!-- /public/illustrations/checklist-automation.svg -->
<svg xmlns="http://www.w3.org/2000/svg" viewBox="0 0 672 360" role="img" aria-labelledby="title desc">
  <title id="title">Checklist de Automatizaciones</title>
  <desc id="desc">Clipboard con checklist marcado conectado por nodos a íconos de código y un engranaje.</desc>
  <defs>
    <linearGradient id="indigo" x1="0" y1="0" x2="1" y2="1">
      <stop offset="0" stop-color="#4F46E5"></stop>
      <stop offset="1" stop-color="#6366F1"></stop>
    </linearGradient>
    <filter id="soft" x="-20%" y="-20%" width="140%" height="140%">
      <feGaussianBlur stdDeviation="8" result="b"></feGaussianBlur>
      <feMerge><feMergeNode in="b"></feMergeNode><feMergeNode in="SourceGraphic"></feMergeNode></feMerge>
    </filter>
    <style>
      .stroke { stroke: url(#indigo); }
      .node { fill: #4F46E5; }
      .muted { stroke: #E5E7EB; }
    </style>
  </defs>

  <!-- Fondo sutil -->
  <rect x="0" y="0" width="672" height="360" fill="#F5F7FF"></rect>
  <ellipse cx="520" cy="88" rx="120" ry="34" fill="#EEF2FF"></ellipse>
  <ellipse cx="520" cy="260" rx="140" ry="36" fill="#EEF2FF"></ellipse>

  <!-- Clipboard -->
  <g transform="translate(72 48)" filter="url(#soft)">
    <rect x="0" y="28" width="280" height="232" rx="16" fill="#FFFFFF" stroke="#E5E7EB"></rect>
    <rect x="104" y="0" width="72" height="28" rx="10" fill="url(#indigo)"></rect>
    <!-- Líneas del checklist -->
    <g stroke="#CBD5E1" stroke-linecap="round">
      <line x1="56" y1="88" x2="232" y2="88"></line>
      <line x1="56" y1="132" x2="232" y2="132"></line>
      <line x1="56" y1="176" x2="232" y2="176"></line>
    </g>
    <!-- Checks -->
    <g fill="none" stroke="#22C55E" stroke-width="6" stroke-linecap="round" stroke-linejoin="round">
      <path d="M24 84 l10 10 20 -20"></path>
      <path d="M24 128 l10 10 20 -20"></path>
      <path d="M24 172 l10 10 20 -20"></path>
    </g>
  </g>

  <!-- Red de nodos y conectores -->
  <g fill="none" stroke-linecap="round" stroke-linejoin="round">
    <!-- Conexión principal -->
    <path class="stroke" stroke-width="4" d="M352 164 C400 164, 408 120, 456 120"></path>
    <path class="stroke" stroke-width="4" d="M352 176 C400 176, 408 220, 456 220"></path>

    <!-- Nodos -->
    <circle cx="352" cy="170" r="6" class="node"></circle>
    <circle cx="456" cy="120" r="6" class="node"></circle>
    <circle cx="456" cy="220" r="6" class="node"></circle>

    <!-- Ramales secundarios -->
    <path class="muted" stroke-width="3" d="M456 120 Q504 120 520 136"></path>
    <path class="muted" stroke-width="3" d="M456 220 Q504 220 520 204"></path>
    <circle cx="520" cy="136" r="5" fill="#93C5FD"></circle>
    <circle cx="520" cy="204" r="5" fill="#93C5FD"></circle>
  </g>

  <!-- Símbolo de código <> -->
  <g transform="translate(540 90)" fill="none" stroke="url(#indigo)" stroke-width="6" stroke-linecap="round" stroke-linejoin="round">
    <polyline points="0,0 -18,18 0,36"></polyline>
    <polyline points="60,0 78,18 60,36"></polyline>
  </g>

  <!-- Engranaje -->
  <g transform="translate(528 212)">
    <circle cx="24" cy="24" r="24" fill="#ffffff" stroke="url(#indigo)" stroke-width="3"></circle>
    <g transform="translate(24 24)" stroke="url(#indigo)" stroke-width="3" stroke-linecap="round">
      <circle r="6" fill="none"></circle>
      <path d="M0 -16 v-8"></path>
      <path d="M0 16 v8"></path>
      <path d="M-16 0 h-8"></path>
      <path d="M16 0 h8"></path>
      <path d="M-11 -11 l-6 -6"></path>
      <path d="M11 11 l6 6"></path>
      <path d="M11 -11 l6 -6"></path>
      <path d="M-11 11 l-6 6"></path>
    </g>
  </g>
</svg>
